# xmcd CD database file
#
# Track frame offsets:
#	150
#	15683
#	29058
#	45189
#	55356
#	69145
#	79875
#	96996
#	113431
#	127390
#	146224
#	165047
#	179471
#	195471
#	213287
#	226785
#	249269
#	261337
#	273636
#	291430
#	309749
#	323989
#	341794
#
# Disc length: 4742 seconds
#
# Revision: 3
# Processed by: cddbd v1.5.2PL0 Copyright (c) Steve Scherf et al.
# Submitted via: CDex 1.51
#
DISCID=55128417
DTITLE=Various Artist - ZM-TPMH-Disc-2
DYEAR=1900
DGENRE=Blues
TTITLE0=Michael Jackson - Black Or White
TTITLE1=Roy Orbison - Blue Angel
TTITLE2=Elton John - Blue Eyes
TTITLE3=Elvis Presley - Blue Suede Shoes
TTITLE4=Roy Orbison - Borne On The Wind
TTITLE5=Roy orbison - Breakin' Up Is Breakin' my Heart
TTITLE6=Neil Diamond - Brooklyn Roads
TTITLE7=Neil Diamond - Brother Love's Travelling Salvation Show
TTITLE8=Elvis Presley - Burning Love
TTITLE9=Roy Orbison - California Blue
TTITLE10=Elton John - Can You Feel The Love Tonight
TTITLE11=Elvis Presley - Can't Help Falling In Love
TTITLE12=Barry Manilow - Can't Smile Without You
TTITLE13=Elton John - Candle In The Wind
TTITLE14=Neil Diamond - Cherry Cherry
TTITLE15=Elton John - Circle Of Life
TTITLE16=Roy Orbison - Claudette
TTITLE17=Cliff Richard - Congratulations
TTITLE18=Barry Manilow - Copacabana (at the copa)
TTITLE19=Barry Mailow - Could It Be Magic
TTITLE20=Neil Diamond - Cracklin Rosie
TTITLE21=Elton John - Crocodile Rock
TTITLE22=Neil Diamond - Crunchy Granola Suite
EXTD=
EXTT0=
EXTT1=
EXTT2=
EXTT3=
EXTT4=
EXTT5=
EXTT6=
EXTT7=
EXTT8=
EXTT9=
EXTT10=
EXTT11=
EXTT12=
EXTT13=
EXTT14=
EXTT15=
EXTT16=
EXTT17=
EXTT18=
EXTT19=
EXTT20=
EXTT21=
EXTT22=
PLAYORDER=
